<svg width="19" height="19" viewBox="0 0 19 19" fill="none" xmlns="http://www.w3.org/2000/svg">
<path d="M14.4541 2.77715C14.5626 2.8221 14.6554 2.89821 14.7206 2.99587C14.7859 3.09352 14.8207 3.20833 14.8207 3.32578V6.68482C14.8207 6.84229 14.7581 6.99332 14.6468 7.10467C14.5354 7.21602 14.3844 7.27857 14.2269 7.27857H10.8679C10.7505 7.27847 10.6358 7.24359 10.5383 7.17834C10.4407 7.11309 10.3647 7.0204 10.3198 6.91197C10.2749 6.80354 10.2632 6.68424 10.286 6.56913C10.3089 6.45402 10.3654 6.34827 10.4483 6.26524L11.7165 4.9954C10.5516 4.50756 9.25821 4.4176 8.03691 4.73946C6.81562 5.06132 5.73458 5.77703 4.96135 6.77566C4.18812 7.7743 3.76588 9.0001 3.76006 10.2631C3.75423 11.5261 4.16516 12.7557 4.92915 13.7614C5.69313 14.7671 6.76752 15.4928 7.9858 15.8259C9.20408 16.159 10.4982 16.081 11.6676 15.6039C12.8371 15.1268 13.8165 14.2773 14.4541 13.1871C15.0917 12.0969 15.3519 10.8267 15.1943 9.57361C15.178 9.41904 15.223 9.26423 15.3195 9.14243C15.4161 9.02063 15.5566 8.94155 15.7108 8.92217C15.865 8.90279 16.0207 8.94466 16.1443 9.03878C16.268 9.1329 16.3499 9.27177 16.3723 9.42557C16.565 10.9584 16.2398 12.5116 15.4484 13.8383C14.657 15.1651 13.4447 16.1892 12.0044 16.7479C10.5641 17.3066 8.9784 17.3677 7.49933 16.9217C6.02026 16.4757 4.73273 15.548 3.84143 14.2862C2.95013 13.0244 2.5062 11.5008 2.58023 9.95772C2.65425 8.41463 3.24197 6.94056 4.24996 5.76985C5.25796 4.59914 6.62837 3.79898 8.14334 3.49657C9.65832 3.19415 11.2309 3.40684 12.6111 4.10082L13.8065 2.9054C13.8896 2.8225 13.9954 2.76607 14.1105 2.74324C14.2256 2.72042 14.3457 2.73222 14.4541 2.77715Z" fill="white"/>
</svg>
