<svg width="38" height="38" viewBox="0 0 38 38" fill="none" xmlns="http://www.w3.org/2000/svg">
<path d="M6.33301 11.875V4.75002C6.33301 4.33009 6.49982 3.92737 6.79676 3.63043C7.09369 3.3335 7.49642 3.16669 7.91634 3.16669H30.083C30.5029 3.16669 30.9057 3.3335 31.2026 3.63043C31.4995 3.92737 31.6663 4.33009 31.6663 4.75002V33.25C31.6663 33.6699 31.4995 34.0727 31.2026 34.3696C30.9057 34.6665 30.5029 34.8334 30.083 34.8334H7.91634C7.49642 34.8334 7.09369 34.6665 6.79676 34.3696C6.49982 34.0727 6.33301 33.6699 6.33301 33.25V26.125" stroke="white" stroke-width="2" stroke-linecap="round" stroke-linejoin="round"/>
<path d="M24.5415 11.875H26.9165M22.1665 18.2083H26.9165M22.1665 24.5417H26.9165" stroke="white" stroke-width="2" stroke-linecap="round"/>
<path d="M7.9165 16.625L12.6665 21.375M12.6665 16.625L7.9165 21.375M3.1665 11.875H17.4165V26.125H3.1665V11.875Z" stroke="white" stroke-width="2" stroke-linecap="round" stroke-linejoin="round"/>
</svg>
